{
	"asset":{
		"generator":"Khronos glTF Blender I/O v3.6.27",
		"version":"2.0"
	},
	"scene":0,
	"scenes":[
		{
			"name":"Scene",
			"nodes":[
				0,
				1,
				2,
				3,
				4,
				5
			]
		}
	],
	"nodes":[
		{
			"mesh":0,
			"name":"Boat",
			"scale":[
				2,
				0.3700000047683716,
				1
			]
		},
		{
			"mesh":1,
			"name":"Cylinder",
			"scale":[
				0.10000000149011612,
				0.49604931473731995,
				0.10000000149011612
			],
			"translation":[
				0.787527322769165,
				0.5773534178733826,
				0.435087651014328
			]
		},
		{
			"mesh":1,
			"name":"Cylinder.001",
			"scale":[
				0.10000000149011612,
				0.49604931473731995,
				0.10000000149011612
			],
			"translation":[
				0.787527322769165,
				0.5773534178733826,
				-0.4835498631000519
			]
		},
		{
			"mesh":1,
			"name":"Cylinder.002",
			"scale":[
				0.05000000074505806,
				0.37604930996894836,
				0.05000000074505806
			],
			"translation":[
				-0.9207580089569092,
				0.47917672991752625,
				-0.4808289110660553
			]
		},
		{
			"mesh":1,
			"name":"Cylinder.003",
			"scale":[
				0.05000000074505806,
				0.37599998712539673,
				0.05000000074505806
			],
			"translation":[
				-0.9207580089569092,
				0.47917672991752625,
				0.44777897000312805
			]
		},
		{
			"mesh":2,
			"name":"Roof",
			"scale":[
				1.2999999523162842,
				1,
				1
			],
			"translation":[
				-0.2227117121219635,
				0.8304230570793152,
				-0.013740280643105507
			]
		}
	],
	"materials":[
		{
			"doubleSided":true,
			"name":"Wood-body",
			"pbrMetallicRoughness":{
				"baseColorTexture":{
					"index":0
				},
				"metallicFactor":0,
				"roughnessFactor":0.5
			}
		},
		{
			"doubleSided":true,
			"name":"Wood",
			"pbrMetallicRoughness":{
				"baseColorTexture":{
					"index":1
				},
				"metallicFactor":0,
				"roughnessFactor":0.5
			}
		},
		{
			"doubleSided":true,
			"name":"Paint",
			"pbrMetallicRoughness":{
				"baseColorFactor":[
					0.8000000715255737,
					0.6279910802841187,
					0.15686774253845215,
					1
				],
				"metallicFactor":0,
				"roughnessFactor":0.5
			}
		}
	],
	"meshes":[
		{
			"name":"Cube.001",
			"primitives":[
				{
					"attributes":{
						"POSITION":0,
						"NORMAL":1,
						"TEXCOORD_0":2
					},
					"indices":3,
					"material":0
				}
			]
		},
		{
			"name":"Post",
			"primitives":[
				{
					"attributes":{
						"POSITION":4,
						"NORMAL":5,
						"TEXCOORD_0":6
					},
					"indices":7,
					"material":1
				}
			]
		},
		{
			"name":"Plane",
			"primitives":[
				{
					"attributes":{
						"POSITION":8,
						"NORMAL":9,
						"TEXCOORD_0":10
					},
					"indices":11,
					"material":2
				}
			]
		}
	],
	"textures":[
		{
			"sampler":0,
			"source":0
		},
		{
			"sampler":0,
			"source":1
		}
	],
	"images":[
		{
			"mimeType":"image/jpeg",
			"name":"wood1",
			"uri":"wood1.jpg"
		},
		{
			"mimeType":"image/jpeg",
			"name":"wood2",
			"uri":"wood2.jpg"
		}
	],
	"accessors":[
		{
			"bufferView":0,
			"componentType":5126,
			"count":40,
			"max":[
				1,
				1,
				1
			],
			"min":[
				-1,
				-0.5633349418640137,
				-1
			],
			"type":"VEC3"
		},
		{
			"bufferView":1,
			"componentType":5126,
			"count":40,
			"type":"VEC3"
		},
		{
			"bufferView":2,
			"componentType":5126,
			"count":40,
			"type":"VEC2"
		},
		{
			"bufferView":3,
			"componentType":5123,
			"count":60,
			"type":"SCALAR"
		},
		{
			"bufferView":4,
			"componentType":5126,
			"count":192,
			"max":[
				1,
				1,
				1
			],
			"min":[
				-1,
				-1,
				-1
			],
			"type":"VEC3"
		},
		{
			"bufferView":5,
			"componentType":5126,
			"count":192,
			"type":"VEC3"
		},
		{
			"bufferView":6,
			"componentType":5126,
			"count":192,
			"type":"VEC2"
		},
		{
			"bufferView":7,
			"componentType":5123,
			"count":372,
			"type":"SCALAR"
		},
		{
			"bufferView":8,
			"componentType":5126,
			"count":4,
			"max":[
				1,
				0,
				1
			],
			"min":[
				-1,
				0,
				-1
			],
			"type":"VEC3"
		},
		{
			"bufferView":9,
			"componentType":5126,
			"count":4,
			"type":"VEC3"
		},
		{
			"bufferView":10,
			"componentType":5126,
			"count":4,
			"type":"VEC2"
		},
		{
			"bufferView":11,
			"componentType":5123,
			"count":6,
			"type":"SCALAR"
		}
	],
	"bufferViews":[
		{
			"buffer":0,
			"byteLength":480,
			"byteOffset":0,
			"target":34962
		},
		{
			"buffer":0,
			"byteLength":480,
			"byteOffset":480,
			"target":34962
		},
		{
			"buffer":0,
			"byteLength":320,
			"byteOffset":960,
			"target":34962
		},
		{
			"buffer":0,
			"byteLength":120,
			"byteOffset":1280,
			"target":34963
		},
		{
			"buffer":0,
			"byteLength":2304,
			"byteOffset":1400,
			"target":34962
		},
		{
			"buffer":0,
			"byteLength":2304,
			"byteOffset":3704,
			"target":34962
		},
		{
			"buffer":0,
			"byteLength":1536,
			"byteOffset":6008,
			"target":34962
		},
		{
			"buffer":0,
			"byteLength":744,
			"byteOffset":7544,
			"target":34963
		},
		{
			"buffer":0,
			"byteLength":48,
			"byteOffset":8288,
			"target":34962
		},
		{
			"buffer":0,
			"byteLength":48,
			"byteOffset":8336,
			"target":34962
		},
		{
			"buffer":0,
			"byteLength":32,
			"byteOffset":8384,
			"target":34962
		},
		{
			"buffer":0,
			"byteLength":12,
			"byteOffset":8416,
			"target":34963
		}
	],
	"samplers":[
		{
			"magFilter":9729,
			"minFilter":9987
		}
	],
	"buffers":[
		{
			"byteLength":8428,
			"uri":"boat2.bin"
		}
	]
}
