{
  "accessors": [
    {
      "bufferView": 2,
      "componentType": 5126,
      "count": 3533,
      "max": [
        -14.159504890441895,
        23.85154151916504,
        11.734748840332031
      ],
      "min": [
        -31.742000579833984,
        -0.5978192090988159,
        -6.78111457824707
      ],
      "type": "VEC3"
    },
    {
      "bufferView": 2,
      "byteOffset": 42396,
      "componentType": 5126,
      "count": 3533,
      "max": [
        1.0,
        1.0,
        1.0
      ],
      "min": [
        -1.0,
        -1.0,
        -1.0
      ],
      "type": "VEC3"
    },
    {
      "bufferView": 1,
      "componentType": 5126,
      "count": 3533,
      "max": [
        1.0,
        1.0
      ],
      "min": [
        0.0,
        -3.155804506604909e-09
      ],
      "type": "VEC2"
    },
    {
      "bufferView": 0,
      "componentType": 5125,
      "count": 8298,
      "type": "SCALAR"
    },
    {
      "bufferView": 2,
      "byteOffset": 84792,
      "componentType": 5126,
      "count": 10772,
      "max": [
        8.039499282836914,
        25.78106689453125,
        11.734748840332031
      ],
      "min": [
        -8.493096351623535,
        -1.4749401807785034,
        -7.752357482910156
      ],
      "type": "VEC3"
    },
    {
      "bufferView": 2,
      "byteOffset": 214056,
      "componentType": 5126,
      "count": 10772,
      "max": [
        1.0,
        1.0,
        1.0
      ],
      "min": [
        -1.0,
        -1.0,
        -1.0
      ],
      "type": "VEC3"
    },
    {
      "bufferView": 1,
      "byteOffset": 28264,
      "componentType": 5126,
      "count": 10772,
      "max": [
        1.0,
        1.0
      ],
      "min": [
        0.0,
        -7.450580596923828e-09
      ],
      "type": "VEC2"
    },
    {
      "bufferView": 0,
      "byteOffset": 33192,
      "componentType": 5125,
      "count": 25344,
      "type": "SCALAR"
    },
    {
      "bufferView": 2,
      "byteOffset": 343320,
      "componentType": 5126,
      "count": 5531,
      "max": [
        10.705995559692383,
        1.715118169784546,
        7.4995527267456055
      ],
      "min": [
        -7.957431316375732,
        -1.5994149446487427,
        -7.258513927459717
      ],
      "type": "VEC3"
    },
    {
      "bufferView": 2,
      "byteOffset": 409692,
      "componentType": 5126,
      "count": 5531,
      "max": [
        1.0,
        1.0,
        1.0
      ],
      "min": [
        -1.0,
        -1.0,
        -1.0
      ],
      "type": "VEC3"
    },
    {
      "bufferView": 1,
      "byteOffset": 114440,
      "componentType": 5126,
      "count": 5531,
      "max": [
        0.875,
        1.0
      ],
      "min": [
        0.125,
        0.0
      ],
      "type": "VEC2"
    },
    {
      "bufferView": 0,
      "byteOffset": 134568,
      "componentType": 5125,
      "count": 10254,
      "type": "SCALAR"
    },
    {
      "bufferView": 2,
      "byteOffset": 476064,
      "componentType": 5126,
      "count": 11103,
      "max": [
        11.567633628845215,
        15.247637748718262,
        13.084314346313477
      ],
      "min": [
        -10.426627159118652,
        -1.6667231321334839,
        -8.977006912231445
      ],
      "type": "VEC3"
    },
    {
      "bufferView": 2,
      "byteOffset": 609300,
      "componentType": 5126,
      "count": 11103,
      "max": [
        1.0,
        1.0,
        1.0
      ],
      "min": [
        -1.0,
        -1.0,
        -1.0
      ],
      "type": "VEC3"
    },
    {
      "bufferView": 1,
      "byteOffset": 158688,
      "componentType": 5126,
      "count": 11103,
      "max": [
        1.0,
        1.0
      ],
      "min": [
        0.0,
        -3.725290298461914e-09
      ],
      "type": "VEC2"
    },
    {
      "bufferView": 0,
      "byteOffset": 175584,
      "componentType": 5125,
      "count": 27960,
      "type": "SCALAR"
    },
    {
      "bufferView": 2,
      "byteOffset": 742536,
      "componentType": 5126,
      "count": 5330,
      "max": [
        9.066539764404297,
        25.42109489440918,
        12.014728546142578
      ],
      "min": [
        -8.246393203735352,
        5.012854099273682,
        -6.948881149291992
      ],
      "type": "VEC3"
    },
    {
      "bufferView": 2,
      "byteOffset": 806496,
      "componentType": 5126,
      "count": 5330,
      "max": [
        1.0,
        1.0,
        1.0
      ],
      "min": [
        -1.0,
        -1.0,
        -1.0
      ],
      "type": "VEC3"
    },
    {
      "bufferView": 1,
      "byteOffset": 247512,
      "componentType": 5126,
      "count": 5330,
      "max": [
        1.0,
        1.0
      ],
      "min": [
        0.0,
        -3.725290298461914e-09
      ],
      "type": "VEC2"
    },
    {
      "bufferView": 0,
      "byteOffset": 287424,
      "componentType": 5125,
      "count": 11196,
      "type": "SCALAR"
    },
    {
      "bufferView": 2,
      "byteOffset": 870456,
      "componentType": 5126,
      "count": 1880,
      "max": [
        7.8464484214782715,
        22.080894470214844,
        5.832207679748535
      ],
      "min": [
        -7.333641052246094,
        1.217883586883545,
        -6.664806842803955
      ],
      "type": "VEC3"
    },
    {
      "bufferView": 2,
      "byteOffset": 893016,
      "componentType": 5126,
      "count": 1880,
      "max": [
        1.0,
        1.0,
        1.0
      ],
      "min": [
        -1.0,
        -1.0,
        -1.0
      ],
      "type": "VEC3"
    },
    {
      "bufferView": 1,
      "byteOffset": 290152,
      "componentType": 5126,
      "count": 1880,
      "max": [
        0.875,
        1.0
      ],
      "min": [
        0.125,
        -1.4901161193847656e-08
      ],
      "type": "VEC2"
    },
    {
      "bufferView": 0,
      "byteOffset": 332208,
      "componentType": 5125,
      "count": 6768,
      "type": "SCALAR"
    },
    {
      "bufferView": 2,
      "byteOffset": 915576,
      "componentType": 5126,
      "count": 954,
      "max": [
        7.920144081115723,
        25.24519157409668,
        8.408556938171387
      ],
      "min": [
        -7.272690296173096,
        3.1566643714904785,
        -6.362243175506592
      ],
      "type": "VEC3"
    },
    {
      "bufferView": 2,
      "byteOffset": 927024,
      "componentType": 5126,
      "count": 954,
      "max": [
        1.0,
        1.0,
        1.0
      ],
      "min": [
        -1.0,
        -1.0,
        -1.0
      ],
      "type": "VEC3"
    },
    {
      "bufferView": 1,
      "byteOffset": 305192,
      "componentType": 5126,
      "count": 954,
      "max": [
        0.875,
        1.0
      ],
      "min": [
        0.125,
        0.0
      ],
      "type": "VEC2"
    },
    {
      "bufferView": 0,
      "byteOffset": 359280,
      "componentType": 5125,
      "count": 2124,
      "type": "SCALAR"
    },
    {
      "bufferView": 2,
      "byteOffset": 938472,
      "componentType": 5126,
      "count": 348,
      "max": [
        7.186633586883545,
        21.88723373413086,
        6.387715816497803
      ],
      "min": [
        -2.4845070838928223,
        5.144400596618652,
        -3.2583963871002197
      ],
      "type": "VEC3"
    },
    {
      "bufferView": 2,
      "byteOffset": 942648,
      "componentType": 5126,
      "count": 348,
      "max": [
        1.0,
        1.0,
        1.0
      ],
      "min": [
        -1.0,
        -1.0,
        -1.0
      ],
      "type": "VEC3"
    },
    {
      "bufferView": 1,
      "byteOffset": 312824,
      "componentType": 5126,
      "count": 348,
      "max": [
        0.875,
        1.0
      ],
      "min": [
        0.125,
        -3.725290298461914e-09
      ],
      "type": "VEC2"
    },
    {
      "bufferView": 0,
      "byteOffset": 367776,
      "componentType": 5125,
      "count": 756,
      "type": "SCALAR"
    },
    {
      "bufferView": 2,
      "byteOffset": 946824,
      "componentType": 5126,
      "count": 428,
      "max": [
        7.975973129272461,
        14.851160049438477,
        9.35512924194336
      ],
      "min": [
        -7.706607341766357,
        -1.1655774116516113,
        -7.619117736816406
      ],
      "type": "VEC3"
    },
    {
      "bufferView": 2,
      "byteOffset": 951960,
      "componentType": 5126,
      "count": 428,
      "max": [
        1.0,
        1.0,
        1.0
      ],
      "min": [
        -1.0,
        -1.0,
        -1.0
      ],
      "type": "VEC3"
    },
    {
      "bufferView": 1,
      "byteOffset": 315608,
      "componentType": 5126,
      "count": 428,
      "max": [
        0.875,
        1.0
      ],
      "min": [
        0.125,
        0.0
      ],
      "type": "VEC2"
    },
    {
      "bufferView": 0,
      "byteOffset": 370800,
      "componentType": 5125,
      "count": 888,
      "type": "SCALAR"
    },
    {
      "bufferView": 2,
      "byteOffset": 957096,
      "componentType": 5126,
      "count": 143,
      "max": [
        3.029573917388916,
        14.08311939239502,
        11.036149024963379
      ],
      "min": [
        -1.1358797550201416,
        9.642230033874512,
        -4.401660919189453
      ],
      "type": "VEC3"
    },
    {
      "bufferView": 2,
      "byteOffset": 958812,
      "componentType": 5126,
      "count": 143,
      "max": [
        1.0,
        1.0,
        1.0
      ],
      "min": [
        -1.0,
        -1.0,
        -1.0
      ],
      "type": "VEC3"
    },
    {
      "bufferView": 1,
      "byteOffset": 319032,
      "componentType": 5126,
      "count": 143,
      "max": [
        0.875,
        1.0
      ],
      "min": [
        0.125,
        -3.155804506604909e-09
      ],
      "type": "VEC2"
    },
    {
      "bufferView": 0,
      "byteOffset": 374352,
      "componentType": 5125,
      "count": 300,
      "type": "SCALAR"
    }
  ],
  "asset": {
    "extras": {
      "author": "Rixael (https://sketchfab.com/rixael)",
      "license": "CC-BY-4.0 (http://creativecommons.org/licenses/by/4.0/)",
      "source": "https://sketchfab.com/3d-models/house-draft-1ad594755ea44127bedaa23654237eea",
      "title": "House Draft"
    },
    "generator": "Sketchfab-12.68.0",
    "version": "2.0"
  },
  "bufferViews": [
    {
      "buffer": 0,
      "byteLength": 375552,
      "name": "floatBufferViews",
      "target": 34963
    },
    {
      "buffer": 0,
      "byteLength": 320176,
      "byteOffset": 375552,
      "byteStride": 8,
      "name": "floatBufferViews",
      "target": 34962
    },
    {
      "buffer": 0,
      "byteLength": 960528,
      "byteOffset": 695728,
      "byteStride": 12,
      "name": "floatBufferViews",
      "target": 34962
    }
  ],
  "buffers": [
    {
      "byteLength": 1656256,
      "uri": "scene.bin"
    }
  ],
  "materials": [
    {
      "doubleSided": true,
      "name": "lambert1",
      "pbrMetallicRoughness": {
        "baseColorFactor": [
          0.17826807658343072,
          0.15810617571613195,
          0.15547048283874143,
          1.0
        ],
        "metallicFactor": 0.0,
        "roughnessFactor": 0.6
      }
    },
    {
      "doubleSided": true,
      "name": "wood",
      "pbrMetallicRoughness": {
        "baseColorFactor": [
          0.20512310766578343,
          0.11750406284067183,
          0.08525545897263791,
          1.0
        ],
        "metallicFactor": 0.0,
        "roughnessFactor": 0.986619854167798
      }
    },
    {
      "doubleSided": true,
      "name": "green",
      "pbrMetallicRoughness": {
        "baseColorFactor": [
          0.3851447275338834,
          0.3693129871974313,
          0.011648217701648764,
          1.0
        ],
        "metallicFactor": 0.0,
        "roughnessFactor": 0.9477607903889794
      }
    },
    {
      "doubleSided": true,
      "name": "material",
      "pbrMetallicRoughness": {
        "baseColorFactor": [
          0.48396431120072775,
          0.04581101131578954,
          0.011493762280177679,
          1.0
        ],
        "metallicFactor": 0.0,
        "roughnessFactor": 0.9477607903889794
      }
    },
    {
      "doubleSided": true,
      "name": "light_wall",
      "pbrMetallicRoughness": {
        "baseColorFactor": [
          0.7939726814436527,
          0.592422334643333,
          0.31333545476182,
          1.0
        ],
        "metallicFactor": 0.0,
        "roughnessFactor": 0.8942628736559436
      }
    },
    {
      "doubleSided": true,
      "name": "wood_dark",
      "pbrMetallicRoughness": {
        "baseColorFactor": [
          0.07325448087095661,
          0.04066729724755767,
          0.028866981891351742,
          1.0
        ],
        "metallicFactor": 0.0,
        "roughnessFactor": 0.986619854167798
      }
    },
    {
      "doubleSided": true,
      "name": "red_light",
      "pbrMetallicRoughness": {
        "baseColorFactor": [
          0.7139741598449558,
          0.15080288216204701,
          0.07773688871163442,
          1.0
        ],
        "metallicFactor": 0.0,
        "roughnessFactor": 0.9477607903889794
      }
    },
    {
      "doubleSided": true,
      "name": "wall",
      "pbrMetallicRoughness": {
        "baseColorFactor": [
          0.7560125899801342,
          0.5265820817328483,
          0.4425164174015089,
          1.0
        ],
        "metallicFactor": 0.0,
        "roughnessFactor": 0.9513543616628996
      }
    },
    {
      "doubleSided": true,
      "name": "gold",
      "pbrMetallicRoughness": {
        "baseColorFactor": [
          0.6843890530385724,
          0.2371590376917766,
          0.01205049866750025,
          1.0
        ],
        "metallicFactor": 0.0,
        "roughnessFactor": 0.8841395135355297
      }
    }
  ],
  "meshes": [
    {
      "name": "house_draft_lambert1_0",
      "primitives": [
        {
          "attributes": {
            "NORMAL": 1,
            "POSITION": 0,
            "TEXCOORD_0": 2
          },
          "indices": 3,
          "material": 0,
          "mode": 4
        }
      ]
    },
    {
      "name": "curve9_wood_0",
      "primitives": [
        {
          "attributes": {
            "NORMAL": 5,
            "POSITION": 4,
            "TEXCOORD_0": 6
          },
          "indices": 7,
          "material": 1,
          "mode": 4
        }
      ]
    },
    {
      "name": "curve9_lambert1_0",
      "primitives": [
        {
          "attributes": {
            "NORMAL": 9,
            "POSITION": 8,
            "TEXCOORD_0": 10
          },
          "indices": 11,
          "material": 0,
          "mode": 4
        }
      ]
    },
    {
      "name": "curve9_green_0",
      "primitives": [
        {
          "attributes": {
            "NORMAL": 13,
            "POSITION": 12,
            "TEXCOORD_0": 14
          },
          "indices": 15,
          "material": 2,
          "mode": 4
        }
      ]
    },
    {
      "name": "curve9_red_0",
      "primitives": [
        {
          "attributes": {
            "NORMAL": 17,
            "POSITION": 16,
            "TEXCOORD_0": 18
          },
          "indices": 19,
          "material": 3,
          "mode": 4
        }
      ]
    },
    {
      "name": "curve9_light_wall_0",
      "primitives": [
        {
          "attributes": {
            "NORMAL": 21,
            "POSITION": 20,
            "TEXCOORD_0": 22
          },
          "indices": 23,
          "material": 4,
          "mode": 4
        }
      ]
    },
    {
      "name": "curve9_wood_dark_0",
      "primitives": [
        {
          "attributes": {
            "NORMAL": 25,
            "POSITION": 24,
            "TEXCOORD_0": 26
          },
          "indices": 27,
          "material": 5,
          "mode": 4
        }
      ]
    },
    {
      "name": "curve9_red_light_0",
      "primitives": [
        {
          "attributes": {
            "NORMAL": 29,
            "POSITION": 28,
            "TEXCOORD_0": 30
          },
          "indices": 31,
          "material": 6,
          "mode": 4
        }
      ]
    },
    {
      "name": "curve9_wall_0",
      "primitives": [
        {
          "attributes": {
            "NORMAL": 33,
            "POSITION": 32,
            "TEXCOORD_0": 34
          },
          "indices": 35,
          "material": 7,
          "mode": 4
        }
      ]
    },
    {
      "name": "curve9_gold_0",
      "primitives": [
        {
          "attributes": {
            "NORMAL": 37,
            "POSITION": 36,
            "TEXCOORD_0": 38
          },
          "indices": 39,
          "material": 8,
          "mode": 4
        }
      ]
    }
  ],
  "nodes": [
    {
      "children": [
        1
      ],
      "matrix": [
        1.0,
        2.8327693431939995e-16,
        -2.8327693431939985e-16,
        0.0,
        2.832769343193999e-16,
        -2.2204460492503128e-16,
        1.0,
        0.0,
        2.832769343193999e-16,
        -1.0,
        -2.2204460492503136e-16,
        0.0,
        3.552713678800501e-15,
        -24.114097595214844,
        -4.107192039489751,
        1.0
      ],
      "name": "Sketchfab_model"
    },
    {
      "children": [
        2
      ],
      "matrix": [
        1.0,
        0.0,
        0.0,
        0.0,
        0.0,
        -1.0,
        0.0,
        0.0,
        0.0,
        0.0,
        -1.0,
        0.0,
        0.0,
        0.0,
        0.0,
        1.0
      ],
      "name": "8efb0df92e80409f8121bd921a57af26.fbx"
    },
    {
      "children": [
        3,
        5
      ],
      "name": "RootNode"
    },
    {
      "children": [
        4
      ],
      "matrix": [
        1.0,
        0.0,
        0.0,
        0.0,
        0.0,
        2.220446049250313e-16,
        1.0,
        0.0,
        0.0,
        -1.0,
        2.220446049250313e-16,
        0.0,
        -11.299880027770996,
        0.0,
        0.0,
        1.0
      ],
      "name": "house_draft"
    },
    {
      "mesh": 0,
      "name": "house_draft_lambert1_0"
    },
    {
      "children": [
        6,
        7,
        8,
        9,
        10,
        11,
        12,
        13,
        14
      ],
      "matrix": [
        1.0,
        0.0,
        0.0,
        0.0,
        0.0,
        2.220446049250313e-16,
        1.0,
        0.0,
        0.0,
        -1.0,
        2.220446049250313e-16,
        0.0,
        0.0,
        -1.7763568394002505e-15,
        0.0,
        1.0
      ],
      "name": "curve9"
    },
    {
      "mesh": 1,
      "name": "curve9_wood_0"
    },
    {
      "mesh": 2,
      "name": "curve9_lambert1_0"
    },
    {
      "mesh": 3,
      "name": "curve9_green_0"
    },
    {
      "mesh": 4,
      "name": "curve9_red_0"
    },
    {
      "mesh": 5,
      "name": "curve9_light_wall_0"
    },
    {
      "mesh": 6,
      "name": "curve9_wood_dark_0"
    },
    {
      "mesh": 7,
      "name": "curve9_red_light_0"
    },
    {
      "mesh": 8,
      "name": "curve9_wall_0"
    },
    {
      "mesh": 9,
      "name": "curve9_gold_0"
    }
  ],
  "scene": 0,
  "scenes": [
    {
      "name": "Sketchfab_Scene",
      "nodes": [
        0
      ]
    }
  ]
}
